<?xml version="1.0" standalone="no"?>
<!DOCTYPE svg PUBLIC "-//W3C//DTD SVG 20010904//EN"
 "http://www.w3.org/TR/2001/REC-SVG-20010904/DTD/svg10.dtd">
<svg version="1.0" xmlns="http://www.w3.org/2000/svg"
 width="673.000000pt" height="673.000000pt" viewBox="0 0 673.000000 673.000000"
 preserveAspectRatio="xMidYMid meet">

<g transform="translate(0.000000,673.000000) scale(0.100000,-0.100000)"
fill="#000000" stroke="none">
<path d="M3297 6423 c-4 -3 -7 -48 -7 -100 0 -85 2 -93 19 -93 16 0 20 8 23
42 2 23 8 43 15 45 6 2 26 -16 45 -41 34 -46 53 -60 69 -50 10 6 13 187 2 197
-12 13 -33 -15 -33 -44 0 -39 -19 -47 -42 -18 -53 68 -72 82 -91 62z"/>
<path d="M3001 6410 c-24 -5 -46 -11 -48 -14 -7 -7 8 -172 17 -186 15 -24 40
-2 40 35 0 30 3 35 23 35 13 0 36 -13 52 -30 48 -50 93 -36 49 15 -17 20 -23
36 -19 50 16 47 16 72 2 83 -20 17 -66 22 -116 12z m74 -55 c0 -16 -8 -21 -37
-23 -32 -3 -38 0 -38 16 0 27 10 33 45 30 22 -2 30 -8 30 -23z"/>
<path d="M3192 6325 c3 -93 4 -95 27 -95 23 0 24 2 17 53 -3 28 -6 71 -6 95 0
36 -3 42 -20 42 -20 0 -21 -5 -18 -95z"/>
<path d="M3559 6391 c-41 -41 -41 -105 -1 -144 54 -52 164 -46 175 10 8 42 -8
63 -48 63 -38 0 -47 -18 -20 -40 25 -21 17 -30 -24 -30 -43 0 -71 26 -71 65 0
57 58 82 119 50 16 -8 31 -11 35 -8 26 26 -29 63 -94 63 -33 0 -48 -6 -71 -29z"/>
<path d="M2763 6369 c-18 -5 -35 -14 -38 -19 -8 -13 24 -160 38 -178 11 -14
62 -10 125 9 58 19 36 44 -27 30 -30 -6 -45 -5 -58 5 -16 11 -16 14 -3 28 8 8
30 18 49 23 57 15 50 33 -13 33 -84 0 -84 27 2 49 23 7 42 16 42 21 0 12 -74
11 -117 -1z"/>
<path d="M3934 6351 c-47 -20 -71 -101 -44 -152 24 -44 113 -64 143 -31 25 27
6 49 -28 34 -38 -18 -62 -15 -79 10 -28 40 5 108 52 108 14 0 36 -9 48 -21 23
-21 44 -19 44 5 0 37 -88 67 -136 47z"/>
<path d="M2585 6320 c-58 -15 -85 -30 -85 -47 0 -39 52 -173 67 -173 20 0 114
28 133 40 11 7 12 12 4 20 -9 9 -22 8 -52 -1 -80 -23 -101 17 -25 51 55 24 49
35 -19 35 -69 0 -72 19 -9 42 77 27 66 54 -14 33z"/>
<path d="M4185 6292 c-31 -6 -64 -42 -76 -82 -22 -72 47 -140 129 -126 43 7
64 25 80 70 11 31 11 41 -4 71 -22 47 -80 77 -129 67z m77 -59 c21 -19 23 -45
7 -76 -15 -28 -28 -37 -58 -37 -53 0 -79 60 -45 108 18 27 69 30 96 5z"/>
<path d="M2400 6236 c0 -8 4 -25 9 -39 18 -46 -2 -51 -61 -18 -45 26 -57 29
-71 18 -16 -11 -15 -18 16 -92 22 -51 40 -81 52 -83 14 -3 17 1 13 25 -3 15
-9 36 -13 46 -11 25 24 22 75 -7 40 -22 80 -25 80 -4 0 5 -12 35 -26 66 -14
31 -30 67 -35 80 -9 24 -39 30 -39 8z"/>
<path d="M4365 6136 c-19 -40 -35 -81 -35 -90 0 -16 96 -66 126 -66 26 0 14
19 -26 42 -22 13 -40 31 -40 40 0 10 11 42 25 73 14 31 23 60 20 65 -16 25
-38 5 -70 -64z"/>
<path d="M2174 6149 c-8 -14 63 -159 83 -166 36 -14 33 16 -8 96 -40 77 -59
95 -75 70z"/>
<path d="M4593 6112 c-5 -4 -22 -29 -38 -57 -16 -27 -35 -58 -43 -67 -8 -9
-11 -22 -7 -28 12 -19 97 -70 117 -70 28 0 21 18 -17 42 -19 13 -35 31 -35 41
0 9 14 41 30 70 17 30 30 56 30 59 0 10 -26 17 -37 10z"/>
<path d="M2056 6089 c-46 -13 -86 -57 -86 -96 0 -67 44 -113 108 -113 34 0 93
39 111 73 12 23 12 29 -3 52 -19 29 -37 31 -71 9 -32 -21 -32 -32 0 -40 29 -7
31 -16 9 -38 -34 -34 -83 -16 -113 42 -10 19 -8 26 13 47 15 15 36 25 54 25
38 0 63 27 36 36 -11 4 -21 8 -24 9 -3 1 -18 -1 -34 -6z"/>
<path d="M3220 6058 c-80 -3 -165 -11 -190 -17 -25 -5 -64 -10 -87 -11 -23 0
-45 -4 -48 -10 -3 -5 -18 -10 -33 -10 -15 0 -47 -6 -72 -14 -25 -8 -72 -23
-105 -32 -33 -10 -64 -22 -69 -26 -6 -4 -19 -8 -31 -8 -12 0 -30 -7 -41 -15
-10 -8 -25 -15 -32 -15 -7 0 -49 -17 -95 -39 -45 -21 -100 -46 -122 -56 -21
-10 -63 -33 -92 -51 -28 -19 -55 -34 -58 -34 -7 0 -12 -4 -170 -120 -179 -133
-412 -384 -539 -583 -41 -63 -153 -280 -174 -337 -8 -19 -25 -64 -38 -100 -23
-58 -34 -95 -66 -210 -59 -214 -88 -621 -57 -809 23 -144 40 -238 48 -271 28
-107 45 -166 51 -175 4 -5 15 -37 25 -70 10 -33 42 -111 72 -172 29 -62 53
-115 53 -117 0 -2 22 -41 50 -85 28 -44 50 -83 50 -86 0 -3 37 -53 82 -113
174 -227 388 -426 608 -564 98 -61 289 -158 370 -188 19 -7 49 -18 65 -25 47
-18 97 -36 130 -45 105 -30 156 -43 200 -50 28 -5 75 -13 105 -19 175 -31 462
-42 579 -21 31 5 90 14 131 20 129 20 167 28 315 70 27 7 66 20 120 40 91 34
311 137 401 189 72 41 234 161 324 240 204 178 392 417 508 646 85 166 161
363 185 475 3 14 14 63 25 110 37 163 47 262 47 455 0 221 -14 334 -75 585
-37 156 -166 454 -261 605 -88 140 -196 273 -325 401 -127 128 -311 275 -411
330 -26 15 -59 34 -73 43 -14 9 -41 24 -60 33 -157 76 -205 98 -219 98 -9 0
-25 6 -36 13 -11 7 -60 26 -110 41 -49 15 -103 32 -120 38 -34 12 -104 27
-155 34 -19 3 -73 11 -120 19 -103 17 -266 22 -460 13z m397 -290 c15 -7 34
-18 41 -25 7 -7 19 -10 27 -7 8 4 15 1 15 -5 0 -14 47 -15 55 -1 4 7 13 7 26
0 11 -6 24 -8 29 -5 5 3 11 1 15 -4 3 -6 33 -13 66 -17 39 -4 56 -10 47 -15
-7 -5 -20 -6 -28 -4 -10 3 -16 -2 -17 -15 -2 -25 32 -35 71 -21 39 15 48 14
41 -8 -3 -12 0 -21 11 -25 18 -7 37 1 29 14 -3 5 12 -1 34 -13 21 -12 37 -26
34 -33 -2 -7 10 -14 31 -18 20 -4 36 -11 36 -16 0 -6 9 -10 19 -10 10 0 22 -7
25 -16 6 -15 8 -15 27 2 19 17 22 17 47 2 17 -11 27 -26 27 -40 0 -34 13 -48
43 -48 37 0 51 -11 61 -46 6 -24 13 -30 40 -32 19 -2 38 1 44 7 6 6 21 11 34
11 19 0 23 -5 21 -27 -2 -38 18 -73 43 -73 29 0 59 -18 59 -35 0 -8 7 -15 16
-15 8 0 12 -4 9 -10 -3 -5 6 -12 20 -16 14 -3 25 -9 25 -13 0 -11 47 -31 73
-31 22 -1 22 -1 2 -16 -17 -13 -18 -16 -5 -24 8 -5 26 -7 40 -4 23 5 24 4 8
-9 -19 -15 -25 -57 -8 -57 5 0 9 -3 9 -7 -8 -48 13 -68 37 -36 16 23 32 8 17
-16 -10 -16 -9 -20 12 -25 13 -3 26 -15 30 -26 5 -17 12 -19 51 -13 38 5 44 4
38 -11 -3 -9 -10 -16 -16 -16 -5 0 -6 -4 -3 -10 3 -5 1 -10 -4 -10 -6 0 -11
-4 -11 -10 0 -5 11 -10 24 -10 26 0 70 -45 60 -62 -3 -5 2 -15 12 -22 11 -9
14 -18 8 -27 -15 -24 -13 -39 7 -49 25 -14 24 -26 -3 -34 -22 -6 -21 -7 10
-21 21 -9 32 -21 32 -34 0 -11 6 -24 14 -28 8 -4 16 -19 18 -33 2 -14 9 -34
15 -45 8 -13 8 -25 1 -39 -14 -25 7 -38 50 -31 23 4 37 1 49 -11 16 -16 16
-16 -5 -10 -19 6 -22 4 -22 -20 0 -15 8 -33 18 -40 16 -13 15 -14 -6 -20 -18
-5 -21 -11 -16 -28 4 -11 13 -25 20 -29 8 -4 14 -15 14 -22 0 -8 6 -15 14 -15
9 0 12 -7 9 -20 -3 -11 -2 -28 2 -37 5 -10 7 -22 5 -28 -2 -5 -4 -26 -5 -45
-1 -19 -4 -41 -6 -49 -5 -18 53 -50 59 -33 4 14 22 15 40 4 14 -9 6 -42 -10
-42 -5 0 -20 -12 -33 -27 -17 -20 -20 -31 -13 -40 8 -10 3 -13 -18 -14 l-29
-2 26 -4 c16 -2 29 -12 32 -23 4 -17 2 -18 -14 -9 -24 13 -44 2 -30 -15 8 -9
6 -18 -8 -30 -24 -22 -17 -46 14 -46 42 0 36 -56 -8 -73 -9 -3 -17 -10 -16
-14 1 -4 0 -10 -1 -13 -13 -34 3 -78 38 -107 12 -10 13 -15 2 -28 -7 -8 -19
-15 -26 -15 -17 0 -19 -17 -3 -22 7 -2 7 -12 -2 -30 -6 -15 -16 -25 -20 -22
-5 3 -9 1 -9 -5 0 -5 5 -13 10 -16 6 -4 8 -10 6 -14 -3 -4 -6 -24 -8 -44 -1
-26 -6 -36 -18 -34 -8 1 -34 -4 -56 -11 -36 -11 -43 -17 -48 -46 -5 -26 -12
-36 -29 -38 -28 -4 -24 -23 6 -24 12 0 37 -4 55 -9 28 -6 32 -12 32 -39 0 -26
-26 -110 -53 -176 -4 -8 -15 -41 -26 -72 -22 -65 -20 -68 54 -68 49 0 95 -17
95 -35 0 -13 -111 -127 -200 -205 -35 -30 -68 -60 -74 -65 -27 -25 -117 -97
-181 -145 -38 -29 -77 -59 -85 -67 -26 -24 -132 -103 -139 -103 -4 0 -16 -8
-27 -18 -22 -20 -118 -82 -127 -82 -4 0 -30 -15 -59 -34 -159 -100 -300 -167
-498 -237 -36 -12 -74 -26 -85 -30 -11 -4 -56 -14 -100 -24 -44 -9 -96 -21
-116 -26 -58 -15 -384 -11 -495 6 -120 18 -296 60 -384 92 -36 12 -71 23 -77
23 -27 0 -391 179 -440 216 -17 13 -35 24 -40 24 -4 0 -19 10 -33 21 -14 11
-51 38 -84 61 -131 91 -383 324 -495 458 -25 30 -56 65 -69 78 -36 36 -25 55
39 68 71 14 82 21 76 48 -6 24 -33 102 -46 131 -22 48 -28 82 -19 98 13 24 35
21 63 -7 16 -16 27 -20 34 -13 7 7 7 15 1 22 -6 7 -12 43 -14 81 -4 77 -13
114 -28 114 -6 0 -8 7 -4 15 4 12 -2 15 -37 13 -41 -3 -42 -2 -44 31 -1 19 -7
38 -15 42 -11 7 -10 11 3 24 12 12 14 27 10 58 -10 63 -8 70 16 82 22 11 22
12 2 25 -10 8 -19 20 -19 28 0 7 -7 15 -16 19 -15 6 -15 7 0 19 10 7 18 18 20
26 1 7 5 19 10 27 7 11 1 12 -33 6 -25 -4 -41 -3 -41 3 0 15 28 23 33 9 2 -6
6 -4 10 5 4 11 -3 23 -21 35 -35 24 -38 41 -8 53 31 11 25 47 -9 56 -23 6 -23
6 11 39 19 18 34 37 34 42 0 11 -30 37 -53 46 -10 4 -17 18 -18 34 -3 67 0 96
11 103 12 8 17 61 6 78 -3 5 10 20 30 31 l37 22 -22 20 c-28 26 -24 54 8 54
15 0 25 6 27 18 1 9 -2 17 -7 17 -5 0 -9 7 -9 15 0 8 4 15 9 15 10 0 9 19 -2
37 -4 6 -1 18 7 26 8 8 12 23 10 34 -4 15 2 23 25 33 17 7 31 16 31 21 0 5 8
9 18 9 41 1 66 51 34 70 -9 5 -12 10 -6 10 7 0 14 9 17 20 3 11 13 20 22 20
14 0 15 3 5 15 -7 8 -18 15 -25 15 -8 0 -11 8 -8 20 3 11 9 20 13 20 5 0 23
12 41 28 18 15 33 25 34 22 1 -9 115 104 115 115 0 6 10 22 22 34 17 19 19 27
10 41 -13 21 -6 30 24 30 30 0 55 10 49 20 -6 10 13 25 50 38 27 9 27 11 7 11
-21 1 -22 3 -8 16 8 8 21 15 29 15 8 0 20 6 27 14 6 8 19 12 27 9 13 -5 15 -1
9 20 -5 22 -2 28 21 39 35 17 43 48 13 48 -30 0 -20 24 13 28 14 2 31 10 37
18 7 8 18 14 24 14 7 0 23 12 37 26 14 15 31 23 41 21 10 -3 21 -1 24 4 3 5
-5 10 -18 10 -18 1 -19 2 -5 6 10 3 25 2 34 -1 12 -5 13 -9 3 -21 -10 -12 -9
-15 8 -15 11 0 25 7 32 15 7 8 22 15 34 15 21 1 56 21 56 34 0 3 -16 6 -35 6
-35 0 -46 12 -23 26 7 4 8 3 4 -4 -4 -8 0 -12 10 -12 10 0 35 19 57 42 33 35
44 42 74 40 19 -2 32 1 30 5 -3 4 16 9 41 10 25 1 49 8 53 14 11 19 -1 39 -25
40 -16 1 -17 2 -3 6 9 2 17 8 17 13 0 4 26 11 58 14 31 3 70 7 85 8 15 2 31 9
36 16 10 17 67 12 63 -6 -1 -7 5 -15 14 -19 10 -4 27 6 47 29 23 25 44 37 71
41 22 4 42 11 46 17 4 7 32 11 66 10 69 -3 94 5 94 30 0 15 10 17 80 15 70 -2
82 -5 100 -26 12 -13 18 -18 14 -10 -6 11 -2 13 17 7 13 -4 43 -10 67 -13 34
-5 42 -3 43 11 1 9 3 21 4 26 1 6 3 12 4 15 2 7 7 6 38 -7z m-750 -94 c-3 -3
-12 -4 -19 -1 -8 3 -5 6 6 6 11 1 17 -2 13 -5z m1850 -369 c0 -8 -4 -15 -8
-15 -11 0 -20 16 -12 24 11 11 20 7 20 -9z m13 -35 c0 -5 6 -10 13 -10 6 0 21
-7 31 -15 18 -13 18 -15 2 -21 -10 -4 -23 -1 -29 6 -9 10 -9 11 2 5 9 -5 12
-4 7 3 -4 7 -15 12 -26 12 -10 0 -20 7 -24 15 -3 9 0 15 9 15 8 0 15 -4 15
-10z m220 -214 c0 -26 -21 -29 -43 -7 l-21 21 32 0 c21 0 32 -5 32 -14z m405
-715 c3 -5 0 -13 -5 -16 -8 -5 -6 -13 4 -24 9 -10 13 -21 9 -24 -10 -10 -25
-8 -19 2 3 5 0 14 -8 20 -8 7 -12 21 -9 31 6 21 18 26 28 11z m52 -77 c-9 -9
-28 6 -21 18 4 6 10 6 17 -1 6 -6 8 -13 4 -17z m1 -640 c-9 -10 -21 -13 -29
-8 -9 5 -8 9 7 15 31 12 39 10 22 -7z"/>
<path d="M2545 5499 c-11 -16 -1 -19 13 -3 7 8 8 14 3 14 -5 0 -13 -5 -16 -11z"/>
<path d="M2400 5212 c-19 -20 -57 -55 -84 -77 -27 -22 -61 -52 -75 -66 -41
-41 -265 -231 -278 -236 -22 -9 -14 -42 19 -91 42 -60 56 -87 73 -137 62 -183
38 -393 -60 -540 -34 -51 -55 -94 -55 -113 0 -10 -4 -22 -9 -27 -9 -11 -31
-82 -58 -190 -13 -54 -17 -114 -18 -260 0 -200 9 -264 55 -385 12 -30 25 -66
29 -80 13 -41 80 -161 128 -228 65 -92 159 -180 247 -234 42 -25 141 -68 158
-68 10 0 28 -5 39 -11 26 -13 240 -14 265 -1 18 10 72 25 144 41 19 4 45 13
57 19 12 7 58 12 102 12 63 0 88 -4 113 -20 43 -26 134 -116 160 -158 l20 -32
28 20 c15 11 33 33 40 50 7 16 15 30 19 30 3 0 23 16 44 35 60 55 107 75 179
75 34 0 80 -6 103 -14 22 -8 67 -22 100 -31 33 -10 69 -21 80 -26 70 -27 303
-29 343 -3 14 9 37 14 53 12 19 -3 29 0 29 8 0 7 14 15 30 19 17 4 30 11 30
16 0 5 6 9 13 9 12 0 42 23 120 93 23 20 50 37 59 37 9 0 20 5 24 12 5 7 3 8
-6 3 -9 -5 -11 -4 -6 4 4 6 16 9 25 6 20 -6 45 19 53 52 4 16 2 20 -9 16 -9
-4 -1 17 21 51 20 31 36 60 36 65 0 18 26 31 38 19 9 -9 12 -9 12 0 0 7 -5 12
-11 12 -7 0 -8 7 -4 18 5 9 9 26 10 37 2 11 11 38 20 60 10 22 21 56 26 75 4
19 17 70 28 113 17 66 21 108 20 265 0 179 -11 269 -40 337 -10 22 -9 6 12
-202 9 -92 9 -150 0 -245 -18 -191 -22 -221 -37 -236 -8 -7 -14 -19 -14 -27 0
-17 -27 -74 -74 -160 -136 -242 -276 -370 -481 -437 -67 -22 -256 -16 -345 11
-41 12 -93 26 -115 31 -22 4 -56 13 -75 19 -101 32 -191 -7 -338 -146 -24 -23
-46 -13 -114 51 -90 85 -132 106 -212 106 -35 0 -86 -6 -112 -14 -274 -80
-353 -84 -529 -29 -113 36 -279 173 -360 298 -64 100 -133 233 -153 296 -39
120 -58 329 -43 480 22 229 42 294 155 503 14 27 26 57 26 66 0 9 6 30 14 46
7 16 19 64 26 107 19 116 -6 246 -77 391 -18 38 -33 77 -33 86 0 9 33 46 73
81 39 35 81 73 92 84 23 22 93 85 146 129 18 16 55 49 81 73 26 23 54 43 62
43 8 0 46 -30 83 -66 50 -49 91 -76 160 -110 51 -24 100 -44 110 -44 10 -1 29
-7 43 -15 38 -21 145 -19 214 5 107 38 147 62 223 136 42 41 84 74 93 74 10 0
28 -10 42 -22 85 -78 106 -95 130 -111 15 -9 34 -17 43 -17 8 0 15 -4 15 -10
0 -5 6 -10 14 -10 8 0 27 -6 43 -14 78 -40 106 -47 191 -47 139 0 303 68 409
171 35 33 72 60 83 60 18 0 64 -37 180 -146 25 -23 56 -52 70 -64 117 -101
200 -186 200 -204 0 -12 -14 -45 -30 -75 -17 -30 -30 -62 -30 -71 0 -10 -7
-23 -15 -30 -17 -14 -20 -50 -5 -50 6 0 10 8 10 18 0 9 11 37 25 61 14 23 25
48 25 55 0 6 12 22 26 35 52 49 51 58 -9 114 -30 29 -65 61 -78 72 -30 25
-189 174 -287 267 -59 57 -76 68 -95 62 -12 -4 -26 -14 -31 -23 -13 -23 -117
-121 -129 -121 -6 0 -25 -11 -43 -25 -18 -14 -39 -25 -48 -25 -8 0 -17 -4 -21
-9 -3 -5 -20 -13 -37 -17 -18 -3 -39 -10 -48 -14 -42 -21 -108 -27 -172 -16
-36 6 -70 14 -74 19 -4 4 -17 7 -29 7 -48 0 -185 89 -267 172 -31 32 -64 58
-73 58 -9 0 -22 -15 -30 -34 -28 -66 -156 -160 -282 -206 -39 -15 -187 -17
-205 -3 -7 5 -38 18 -68 27 -82 26 -194 101 -252 167 -32 37 -59 59 -72 59
-12 0 -37 -17 -56 -38z"/>
<path d="M5037 4770 c-4 -15 1 -22 20 -26 33 -9 49 8 28 30 -22 22 -42 20 -48
-4z"/>
<path d="M3393 4520 c-40 -38 -46 -40 -103 -40 -33 0 -60 -2 -60 -5 0 -2 10
-24 22 -47 23 -43 29 -105 16 -143 -4 -11 -4 -26 1 -34 7 -11 17 -10 55 8 51
25 71 20 62 -14 -4 -15 -1 -25 9 -29 19 -7 20 -36 1 -36 -8 0 -22 -8 -32 -17
-11 -12 -38 -19 -81 -21 -56 -4 -66 -7 -73 -27 -12 -32 -2 -62 23 -69 12 -3
86 -6 163 -6 105 0 144 3 152 13 14 16 1 112 -17 130 -6 6 -11 21 -11 33 0 13
-4 26 -10 29 -15 9 -12 40 7 74 17 29 17 31 -5 60 -17 23 -22 44 -22 89 0 44
-5 63 -18 75 -26 23 -31 22 -79 -23z"/>
<path d="M4695 4520 c-8 -12 -9 -99 -2 -107 3 -2 9 21 12 52 7 55 3 77 -10 55z"/>
<path d="M4691 4364 c0 -11 3 -14 6 -6 3 7 2 16 -1 19 -3 4 -6 -2 -5 -13z"/>
<path d="M2905 4320 c3 -5 17 -10 31 -10 14 0 22 4 19 10 -3 6 -17 10 -31 10
-14 0 -22 -4 -19 -10z"/>
<path d="M4688 4279 c-6 -19 2 -49 13 -49 11 0 11 31 0 49 -7 11 -9 11 -13 0z"/>
<path d="M4710 4171 c0 -11 5 -23 10 -26 6 -3 10 3 10 14 0 11 -4 23 -10 26
-5 3 -10 -3 -10 -14z"/>
<path d="M2955 4150 c3 -5 10 -10 16 -10 5 0 9 5 9 10 0 6 -7 10 -16 10 -8 0
-12 -4 -9 -10z"/>
<path d="M4760 4060 c0 -5 14 -32 30 -58 17 -27 30 -57 30 -66 0 -9 5 -16 10
-16 18 0 11 31 -21 91 -29 54 -49 74 -49 49z"/>
<path d="M5280 3920 c0 -5 7 -10 15 -10 8 0 15 5 15 10 0 6 -7 10 -15 10 -8 0
-15 -4 -15 -10z"/>
<path d="M4840 3888 c0 -13 5 -30 10 -38 7 -11 10 -7 10 17 0 17 -4 35 -10 38
-6 3 -10 -4 -10 -17z"/>
<path d="M5275 3430 c-3 -5 3 -10 15 -10 12 0 18 5 15 10 -3 6 -10 10 -15 10
-5 0 -12 -4 -15 -10z"/>
<path d="M3967 3423 c-3 -5 34 -8 81 -8 48 0 95 -4 105 -9 12 -6 17 -4 17 8 0
14 -15 16 -99 16 -55 0 -102 -3 -104 -7z"/>
<path d="M2766 3401 c-6 -8 -21 -10 -47 -6 -49 8 -89 -14 -89 -50 0 -21 3 -23
33 -18 60 9 135 -39 96 -62 -16 -11 -97 5 -114 21 -21 21 -31 11 -38 -38 -4
-24 -9 -55 -13 -70 -5 -24 -2 -29 22 -39 33 -13 43 -16 97 -22 34 -5 38 -3 43
21 3 15 9 45 14 67 5 22 12 56 15 75 3 19 8 49 11 65 6 34 -18 77 -30 56z
m-43 -199 c22 -24 13 -32 -33 -32 -37 0 -60 14 -60 37 0 21 74 17 93 -5z"/>
<path d="M1595 3370 c-4 -6 3 -10 14 -10 25 0 27 6 6 13 -8 4 -17 2 -20 -3z"/>
<path d="M4150 3275 c-11 -14 -29 -16 -104 -14 -85 3 -91 2 -91 -16 0 -18 9
-21 85 -25 47 -3 91 -9 98 -13 6 -5 12 -21 12 -37 0 -15 -6 -31 -12 -33 -7 -3
17 -6 53 -6 63 -1 67 1 73 23 9 35 -2 55 -33 62 -47 10 -50 13 -58 45 -8 29
-10 30 -23 14z"/>
<path d="M2205 3190 c3 -5 13 -10 21 -10 8 0 14 5 14 10 0 6 -9 10 -21 10 -11
0 -17 -4 -14 -10z"/>
<path d="M1735 3099 c-10 -15 3 -25 16 -12 7 7 7 13 1 17 -6 3 -14 1 -17 -5z"/>
<path d="M2584 3089 c-9 -16 17 -30 44 -24 26 6 42 -19 23 -38 -10 -9 -15 -8
-25 5 -9 12 -16 14 -29 7 -9 -6 -22 -7 -27 -4 -6 3 -10 1 -10 -4 0 -6 7 -11
15 -11 9 0 18 -6 21 -14 3 -8 26 -17 52 -21 26 -4 52 -11 59 -17 13 -10 15 -4
27 69 4 25 1 34 -19 47 -28 18 -120 22 -131 5z m121 -49 c11 -17 -5 -32 -21
-19 -7 6 -11 15 -8 20 7 12 21 11 29 -1z"/>
<path d="M3876 3092 c-19 -4 -50 -58 -41 -72 3 -5 75 -9 159 -9 85 0 186 -3
224 -6 81 -8 92 -1 67 51 -13 28 -22 34 -46 34 -23 0 -32 -5 -36 -21 l-6 -22
-16 22 c-15 19 -27 21 -152 23 -75 2 -144 2 -153 0z"/>
<path d="M5056 3091 c-3 -5 5 -8 19 -8 14 0 22 3 19 8 -3 5 -11 9 -19 9 -8 0
-16 -4 -19 -9z"/>
<path d="M1660 3071 c0 -30 227 -271 256 -271 26 0 14 29 -13 32 -24 3 -28 8
-29 35 0 18 -3 36 -7 39 -4 4 -7 17 -7 29 0 13 -7 28 -15 35 -8 7 -13 16 -10
20 9 15 -15 22 -30 10 -11 -9 -15 -9 -15 -1 0 6 -6 11 -14 11 -7 0 -19 7 -26
15 -11 13 -8 15 15 15 24 0 26 2 14 16 -8 10 -22 14 -40 10 -17 -3 -32 0 -39
9 -17 21 -40 19 -40 -4z"/>
<path d="M4975 2998 c-7 -18 -12 -35 -10 -36 5 -6 37 14 36 21 -1 4 -1 8 0 10
14 45 -7 50 -26 5z"/>
<path d="M2560 2951 c0 -11 9 -25 19 -31 23 -12 103 -16 119 -6 33 20 1 39
-85 51 -49 6 -53 5 -53 -14z"/>
<path d="M4883 2910 c-3 -12 -14 -20 -27 -20 -14 0 -17 -3 -8 -8 9 -6 6 -12
-12 -22 -14 -7 -23 -18 -19 -23 4 -6 -2 -8 -15 -5 -12 3 -20 3 -19 -1 1 -3 -2
-7 -8 -8 -12 -2 -23 -43 -17 -61 6 -18 41 6 111 77 88 89 89 91 51 91 -23 0
-33 -5 -37 -20z"/>
<path d="M2426 2415 c4 -8 11 -15 16 -15 6 0 5 6 -2 15 -7 8 -14 15 -16 15 -2
0 -1 -7 2 -15z"/>
<path d="M2540 2346 c0 -2 7 -7 16 -10 8 -3 12 -2 9 4 -6 10 -25 14 -25 6z"/>
<path d="M2745 2257 c31 -20 94 -39 105 -32 16 10 1 25 -25 25 -13 0 -27 5
-30 10 -3 6 -20 10 -38 10 -29 0 -30 -1 -12 -13z"/>
<path d="M3935 2240 c4 -6 11 -8 16 -5 14 9 11 15 -7 15 -8 0 -12 -5 -9 -10z"/>
<path d="M3845 2209 c-9 -14 -2 -20 14 -10 8 6 9 11 3 15 -6 3 -14 1 -17 -5z"/>
<path d="M3080 2173 c0 -11 35 -32 52 -33 9 0 20 5 24 12 5 8 2 9 -9 5 -9 -3
-19 -2 -22 2 -6 10 -45 22 -45 14z"/>
<path d="M3750 2176 c0 -2 7 -6 15 -10 8 -3 15 -1 15 4 0 6 -7 10 -15 10 -8 0
-15 -2 -15 -4z"/>
<path d="M3646 2158 c-28 -16 -17 -26 20 -18 19 5 38 10 40 13 9 9 -45 14 -60
5z"/>
<path d="M3396 2145 c-4 -10 -21 -15 -53 -16 l-48 -1 34 -10 c18 -5 41 -6 50
-2 9 4 20 6 24 5 5 -1 6 3 2 9 -3 5 1 10 9 10 9 0 16 5 16 10 0 16 -27 12 -34
-5z"/>
<path d="M3455 2130 c-3 -5 -1 -10 4 -10 6 0 11 5 11 10 0 6 -2 10 -4 10 -3 0
-8 -4 -11 -10z"/>
<path d="M3480 2130 c0 -5 6 -10 14 -10 8 0 18 5 21 10 3 6 -3 10 -14 10 -12
0 -21 -4 -21 -10z"/>
<path d="M4727 5945 c-26 -36 -47 -72 -47 -79 0 -27 123 -105 135 -85 4 6 5
11 4 13 -63 43 -88 70 -78 82 15 18 27 18 63 -1 61 -32 75 -12 21 29 -19 15
-35 31 -35 37 0 22 31 19 67 -5 45 -31 53 -32 53 -6 0 11 -4 20 -9 20 -4 0
-25 14 -46 30 -56 45 -73 40 -128 -35z"/>
<path d="M1856 5962 c-3 -5 4 -23 15 -41 11 -18 17 -37 13 -42 -7 -11 -62 -2
-81 13 -18 14 -57 5 -61 -14 -3 -16 77 -133 102 -150 23 -16 30 13 11 47 -24
46 -12 58 40 39 101 -35 115 -9 45 86 -48 65 -71 82 -84 62z"/>
<path d="M4927 5839 c-9 -5 -24 -24 -33 -40 -29 -57 4 -125 75 -155 41 -17 64
-12 85 22 16 23 16 25 -10 49 -34 32 -54 32 -54 0 0 -18 -5 -25 -18 -25 -24 0
-52 31 -52 57 0 22 52 73 74 73 21 0 53 -29 66 -60 15 -36 34 -35 38 4 5 43
-48 86 -107 86 -25 0 -54 -5 -64 -11z"/>
<path d="M1608 5779 c-27 -22 -48 -45 -48 -51 0 -16 113 -138 128 -138 19 0
121 81 122 98 0 19 -26 14 -57 -12 -16 -13 -38 -26 -48 -28 -31 -5 -31 33 0
62 24 23 33 50 16 50 -4 0 -20 -9 -34 -20 -56 -44 -83 -15 -32 35 40 41 42 45
18 45 -10 0 -39 -18 -65 -41z"/>
<path d="M5105 5645 l-70 -65 55 -55 c49 -50 80 -68 80 -47 0 5 -13 21 -30 37
-36 35 -41 75 -8 75 12 0 35 -12 50 -27 42 -40 56 -17 17 30 -48 59 -17 79 42
27 22 -18 37 -26 44 -19 10 10 -80 109 -100 109 -6 0 -42 -29 -80 -65z"/>
<path d="M1359 5528 c-27 -28 -49 -55 -49 -60 0 -9 96 -101 130 -125 17 -12
20 -11 29 6 8 14 6 22 -9 36 -40 37 -13 65 58 62 47 -1 77 17 52 33 -8 5 -30
10 -47 10 -25 0 -33 4 -33 19 0 27 -38 71 -61 71 -11 0 -42 -23 -70 -52z m76
-18 c11 -18 -15 -50 -40 -50 -27 0 -34 27 -13 48 14 14 45 16 53 2z"/>
<path d="M5302 5401 c-11 -6 -8 -14 12 -37 20 -23 27 -27 37 -16 11 10 9 17
-11 37 -16 16 -30 21 -38 16z"/>
<path d="M1210 5335 c-12 -15 -9 -27 29 -96 49 -92 49 -109 -3 -164 l-34 -36
-58 36 c-33 19 -64 35 -70 35 -19 0 -24 -27 -9 -40 39 -32 131 -81 149 -78 27
4 115 158 109 191 -7 34 23 87 48 87 28 0 59 18 59 34 0 8 -28 17 -77 25 -43
8 -90 15 -104 18 -16 3 -30 -1 -39 -12z m90 -56 c0 -5 -7 -9 -15 -9 -8 0 -15
7 -15 15 0 9 6 12 15 9 8 -4 15 -10 15 -15z"/>
<path d="M5454 5270 c-87 -35 -58 -190 35 -190 33 0 24 27 -14 46 -27 13 -35
22 -35 43 0 34 8 45 48 65 30 16 36 16 57 2 15 -10 25 -27 27 -48 2 -22 9 -34
21 -36 14 -3 17 4 17 33 0 52 -44 95 -97 94 -21 0 -48 -4 -59 -9z"/>
<path d="M5594 5064 c-84 -43 -103 -59 -87 -75 9 -9 20 -9 44 0 27 9 35 8 51
-5 26 -25 23 -62 -7 -76 -29 -13 -34 -48 -7 -48 30 1 157 74 160 93 3 16 -3
18 -44 15 -45 -3 -49 -1 -58 25 -9 24 -7 31 17 53 22 21 26 29 16 40 -6 8 -13
14 -14 14 -1 0 -33 -16 -71 -36z"/>
<path d="M983 4953 c-27 -10 -11 -50 47 -117 85 -99 81 -108 -36 -71 -58 18
-81 22 -91 14 -22 -19 -15 -41 24 -81 40 -41 39 -51 -8 -50 -50 1 -81 -15 -77
-39 3 -25 7 -27 100 -64 36 -15 71 -24 77 -21 18 11 13 34 -9 41 -29 9 -25 33
6 37 42 5 53 32 26 61 -26 27 -20 37 20 37 22 0 28 5 28 22 0 12 7 29 16 39
13 15 14 24 5 50 -9 27 -8 37 7 63 10 17 28 32 39 34 26 4 47 27 38 42 -6 10
-188 13 -212 3z m97 -58 c0 -8 -6 -15 -14 -15 -17 0 -28 14 -19 24 12 12 33 6
33 -9z"/>
<path d="M5690 4846 c-52 -23 -76 -39 -78 -52 -3 -23 45 -134 59 -134 14 0 11
27 -7 61 -34 68 20 83 62 18 31 -50 52 -41 30 12 -16 38 -8 66 17 56 8 -3 21
-22 28 -41 8 -23 19 -36 31 -36 10 0 18 1 18 3 0 14 -55 134 -64 139 -14 10
-9 11 -96 -26z"/>
<path d="M5757 4633 c-88 -28 -97 -48 -21 -48 56 0 58 -9 18 -62 -25 -32 -31
-67 -15 -77 11 -7 100 15 155 38 37 15 38 18 24 33 -14 14 -21 14 -47 4 -29
-12 -51 -9 -51 8 0 5 14 25 30 46 37 46 40 85 8 84 -13 0 -58 -12 -101 -26z"/>
<path d="M817 4513 c-14 -13 -6 -22 36 -36 123 -42 142 -45 150 -23 8 21 -10
31 -84 50 -71 18 -92 19 -102 9z"/>
<path d="M792 4403 c2 -11 15 -20 33 -23 20 -3 31 -12 33 -25 2 -15 -9 -25
-48 -42 -81 -35 -63 -66 52 -84 33 -5 66 -11 72 -12 6 -1 11 7 11 18 0 14 -10
23 -35 31 -19 6 -35 15 -37 20 -2 5 21 20 49 34 43 20 53 30 53 50 0 23 -6 26
-65 37 -95 18 -122 17 -118 -4z"/>
<path d="M5830 4407 c-30 -7 -61 -16 -67 -20 -24 -15 -13 -27 25 -27 65 0 71
-13 29 -59 -38 -42 -44 -60 -27 -77 12 -12 156 10 177 27 21 18 -3 39 -38 32
-15 -3 -36 -3 -45 1 -13 5 -9 14 25 52 69 74 42 97 -79 71z"/>
<path d="M895 4169 c-35 -8 -87 -26 -132 -45 -59 -25 -41 -55 67 -113 41 -22
78 -41 83 -41 12 0 7 34 -8 54 -23 30 -19 73 10 98 42 36 32 60 -20 47z m-55
-90 c0 -5 -7 -9 -15 -9 -15 0 -20 12 -9 23 8 8 24 -1 24 -14z"/>
<path d="M5790 4160 c0 -5 11 -20 25 -32 35 -33 43 -80 16 -107 -24 -24 -28
-51 -7 -51 16 0 133 64 159 87 23 21 22 50 -3 63 -30 16 -143 50 -167 50 -13
0 -23 -4 -23 -10z m130 -80 c0 -5 -9 -10 -20 -10 -11 0 -20 5 -20 10 0 6 9 10
20 10 11 0 20 -4 20 -10z"/>
<path d="M740 3950 c-17 -17 -20 -31 -18 -83 l3 -62 95 0 c74 0 95 3 95 14 0
7 -16 18 -35 25 -31 10 -35 15 -38 51 -6 70 -59 98 -102 55z m68 -73 c-2 -16
-10 -22 -28 -22 -28 0 -39 27 -20 50 18 21 52 1 48 -28z"/>
<path d="M5865 3931 c-35 -4 -50 -10 -50 -21 0 -12 17 -15 95 -15 88 0 95 1
95 20 0 17 -7 20 -45 21 -25 1 -67 -1 -95 -5z"/>
<path d="M5820 3820 c0 -5 7 -10 15 -10 8 0 15 5 15 10 0 6 -7 10 -15 10 -8 0
-15 -4 -15 -10z"/>
<path d="M893 3150 c-9 -24 -17 -30 -40 -30 -15 0 -35 -4 -43 -10 -12 -7 -9
-13 14 -31 25 -20 28 -27 22 -66 -3 -23 -3 -43 0 -43 3 0 18 7 35 15 27 14 33
14 61 0 46 -22 50 -19 43 28 -6 39 -4 44 25 66 37 27 28 41 -27 41 -25 0 -33
5 -42 30 -5 17 -16 30 -23 30 -8 0 -19 -13 -25 -30z"/>
<path d="M5778 3110 c-11 -20 -28 -33 -48 -36 -35 -8 -37 -14 -9 -39 16 -16
19 -26 14 -57 -7 -42 7 -50 45 -26 15 10 26 9 55 -5 20 -9 38 -17 41 -17 3 0
2 20 -1 44 -6 40 -5 46 19 61 35 23 33 30 -11 41 -26 6 -42 17 -51 37 -17 35
-33 34 -54 -3z"/>
<path d="M5411 2451 c-53 -76 -55 -101 -4 -66 25 17 41 13 101 -27 41 -28 75
-34 76 -13 0 6 -28 30 -62 55 -61 44 -64 51 -47 93 5 11 3 17 -7 17 -9 0 -34
-27 -57 -59z"/>
<path d="M1117 2453 c-16 -15 -6 -61 18 -83 19 -18 32 -22 59 -17 39 6 136 66
136 83 0 27 -34 22 -87 -12 -66 -42 -87 -41 -91 4 -3 30 -19 41 -35 25z"/>
<path d="M1350 2330 c-143 -31 -182 -57 -111 -71 44 -9 70 -44 71 -91 0 -58
21 -47 68 37 44 79 52 119 26 129 -9 3 -16 5 -17 5 -1 -1 -18 -5 -37 -9z m8
-62 c-7 -20 -48 -23 -48 -4 0 11 9 16 26 16 16 0 24 -5 22 -12z"/>
<path d="M5313 2311 c-29 -24 -46 -68 -38 -98 9 -36 46 -39 95 -8 47 30 73 27
68 -7 -2 -16 -14 -26 -38 -34 -40 -13 -47 -37 -12 -42 27 -4 57 20 78 60 18
35 18 63 -2 82 -22 23 -55 20 -94 -9 -41 -30 -60 -32 -60 -5 0 13 12 25 36 35
20 8 34 20 32 27 -7 20 -41 20 -65 -1z"/>
<path d="M1455 2184 c-88 -76 -106 -95 -100 -104 12 -19 38 -10 90 33 58 46
79 73 70 87 -10 16 -28 11 -60 -16z"/>
<path d="M5203 2164 c-4 -10 10 -32 41 -63 47 -48 55 -68 34 -89 -22 -22 -55
-13 -101 28 -78 69 -109 45 -34 -27 75 -72 115 -78 162 -21 41 48 34 87 -25
142 -53 49 -67 55 -77 30z"/>
<path d="M1519 2121 l-24 -19 18 -49 c25 -66 25 -78 1 -81 -21 -3 -40 23 -46
63 -5 29 -32 25 -36 -6 -4 -30 28 -73 70 -95 27 -14 32 -14 54 1 28 18 33 69
9 101 -18 24 -19 54 -2 54 20 0 37 -22 37 -47 0 -16 6 -23 20 -23 30 0 26 44
-7 79 -38 40 -65 46 -94 22z"/>
<path d="M4984 1970 c-63 -48 -72 -67 -42 -89 13 -8 43 -37 67 -63 34 -37 47
-46 57 -37 12 9 11 16 -3 39 -26 45 -6 61 66 53 48 -4 59 -3 64 11 6 16 4 17
-70 32 -18 3 -23 11 -23 37 0 68 -42 74 -116 17z m86 -22 c0 -19 -32 -48 -52
-48 -24 0 -33 25 -16 44 15 18 68 21 68 4z"/>
<path d="M1674 1937 c-128 -60 -145 -77 -75 -77 50 0 89 -30 93 -73 2 -19 9
-33 19 -35 12 -2 22 19 42 86 32 105 32 109 9 121 -14 7 -36 2 -88 -22z m46
-46 c0 -5 -6 -14 -14 -20 -16 -13 -32 2 -21 19 8 12 35 13 35 1z"/>
<path d="M4854 1868 c-52 -39 -83 -71 -78 -80 3 -4 14 -4 24 2 27 15 44 4 90
-56 22 -30 45 -54 51 -54 26 0 18 34 -20 85 -44 59 -49 76 -26 95 40 33 2 41
-41 8z"/>
<path d="M1811 1790 c-28 -38 -51 -74 -51 -79 0 -20 19 -20 44 0 14 11 36 19
48 17 20 -3 23 -8 20 -46 -3 -31 2 -49 14 -63 24 -26 34 -9 34 57 0 59 12 74
60 74 28 0 44 -8 68 -33 l32 -33 -39 -65 c-34 -55 -37 -66 -25 -78 7 -8 15
-13 17 -10 2 2 20 30 40 62 35 54 39 57 77 57 38 0 40 -2 40 -30 0 -16 -12
-55 -27 -85 -24 -48 -25 -57 -13 -65 11 -7 19 -4 27 8 35 49 53 53 92 23 22
-17 22 -19 8 -47 -18 -36 -8 -65 16 -46 18 15 77 134 77 156 0 24 -23 19 -49
-10 -23 -27 -51 -26 -80 2 -12 11 -12 18 -3 39 16 35 15 43 -7 50 -11 3 -49
25 -85 48 -36 23 -82 53 -103 67 -31 20 -49 24 -97 22 -32 -1 -62 1 -67 3 -4
3 -1 17 6 32 8 15 12 30 9 35 -13 20 -36 3 -83 -62z"/>
<path d="M4564 1665 c-6 -14 66 -148 86 -160 11 -7 101 37 120 59 20 25 3 31
-35 13 -57 -27 -69 -22 -109 43 -38 61 -52 72 -62 45z"/>
<path d="M4414 1597 c-3 -8 -3 -56 -2 -107 3 -103 17 -125 42 -66 16 39 46 52
100 43 30 -5 67 6 56 16 -3 3 -38 32 -78 66 -72 60 -108 74 -118 48z m74 -80
c2 -11 -3 -17 -17 -17 -23 0 -35 15 -26 31 10 15 39 6 43 -14z"/>
<path d="M2413 1538 c-10 -16 -63 -150 -63 -160 0 -5 9 -8 19 -8 14 0 27 19
51 76 30 72 33 104 11 104 -5 0 -13 -6 -18 -12z"/>
<path d="M4286 1490 c4 -27 3 -50 -2 -50 -5 0 -29 14 -54 30 -49 33 -60 36
-77 19 -9 -9 -5 -30 14 -83 27 -75 39 -96 55 -96 11 0 6 53 -7 83 -11 25 19
22 63 -8 37 -25 76 -33 86 -16 10 15 -54 171 -70 171 -12 0 -13 -10 -8 -50z"/>
<path d="M2565 1478 c-2 -7 -14 -46 -26 -86 -21 -71 -21 -73 -3 -87 11 -8 37
-17 59 -21 22 -3 48 -11 58 -16 15 -8 18 -6 15 8 -2 11 -18 23 -41 29 -41 12
-58 30 -50 52 4 11 18 13 59 7 30 -3 54 -2 54 2 0 5 -19 18 -42 30 -66 31 -57
50 22 45 72 -3 73 4 2 31 -55 21 -101 23 -107 6z"/>
<path d="M3975 1443 c-43 -23 -54 -42 -55 -91 0 -34 6 -48 26 -67 69 -64 184
-25 184 63 0 57 -9 77 -40 95 -35 21 -76 21 -115 0z m98 -41 c32 -35 26 -87
-11 -106 -62 -32 -125 42 -87 101 19 29 74 32 98 5z"/>
<path d="M2774 1433 c-6 -4 -14 -26 -17 -48 -3 -22 -10 -57 -16 -78 -8 -33 -6
-42 10 -58 16 -16 31 -19 82 -17 57 3 63 5 84 37 52 77 11 151 -93 166 -22 3
-44 2 -50 -2z m104 -55 c17 -17 15 -78 -5 -100 -21 -23 -69 -24 -81 0 -11 20
-4 81 10 100 13 15 60 16 76 0z"/>
<path d="M3715 1398 c-22 -5 -50 -11 -62 -14 -30 -6 -29 -24 1 -24 34 0 47
-22 53 -91 4 -39 11 -63 20 -66 27 -10 33 11 21 81 -12 74 -10 79 41 93 32 8
45 -12 60 -88 10 -48 16 -60 29 -57 14 3 16 13 13 58 -1 30 -9 70 -17 88 -12
31 -15 32 -66 31 -29 -1 -71 -5 -93 -11z"/>
<path d="M2986 1368 c-21 -102 -14 -143 28 -169 42 -26 87 -24 114 4 36 39 49
208 12 171 -5 -5 -15 -38 -22 -73 -15 -74 -33 -91 -73 -73 -25 11 -26 16 -25
75 1 34 1 68 1 75 -2 21 -30 13 -35 -10z"/>
<path d="M3274 1369 c-46 -13 -67 -42 -67 -92 0 -56 26 -95 68 -103 63 -12
135 20 107 48 -8 8 -21 6 -47 -6 -33 -16 -38 -16 -61 -2 -19 13 -24 25 -24 56
0 64 39 86 100 55 16 -8 31 -11 34 -6 10 16 -5 40 -27 46 -42 12 -52 13 -83 4z"/>
<path d="M3501 1362 c-22 -41 -62 -172 -56 -182 4 -7 20 1 41 20 19 16 42 30
50 30 21 0 57 -20 67 -36 8 -14 47 -20 47 -8 0 12 -83 166 -97 180 -20 19 -40
18 -52 -4z m47 -85 c2 -10 -3 -17 -12 -17 -10 0 -16 9 -16 21 0 24 23 21 28
-4z"/>
<path d="M2508 910 c-14 -11 -28 -31 -30 -45 -6 -29 8 -34 17 -6 9 30 88 64
127 56 63 -14 178 -99 178 -132 0 -19 -15 -16 -73 17 -60 34 -135 41 -157 15
-7 -8 -27 -17 -46 -21 -40 -7 -43 -20 -9 -36 20 -9 37 -9 76 1 65 17 117 7
131 -24 9 -21 7 -29 -20 -59 -41 -47 -47 -82 -24 -137 23 -52 77 -98 164 -139
55 -26 75 -30 148 -30 48 0 90 4 95 8 6 5 31 16 56 26 25 9 70 37 100 62 30
25 64 54 77 65 35 30 58 23 120 -37 31 -30 88 -71 125 -90 65 -33 73 -35 172
-35 94 0 107 3 161 31 144 74 188 176 119 270 -30 41 -31 52 -5 75 23 21 85
24 103 6 15 -15 88 -13 110 3 25 19 21 34 -9 28 -16 -3 -41 4 -66 18 -49 27
-96 23 -168 -14 -27 -14 -54 -26 -60 -26 -44 0 64 102 137 130 49 18 55 18 98
3 32 -10 53 -25 66 -47 l19 -31 0 27 c0 41 -54 78 -115 78 -43 0 -112 -16
-125 -30 -3 -3 -21 -14 -40 -24 -19 -11 -54 -30 -77 -43 l-42 -24 -37 35 c-21
20 -46 39 -56 42 -10 3 -18 10 -18 15 0 5 -7 9 -16 9 -12 0 -14 -7 -8 -32 3
-18 10 -42 15 -53 7 -17 8 -17 8 -2 1 23 33 22 55 -2 65 -71 -7 -201 -138
-250 -28 -10 -51 -23 -51 -27 0 -5 25 -10 55 -12 72 -4 131 19 201 80 57 48
85 58 107 36 30 -30 2 -94 -63 -144 -47 -36 -166 -74 -231 -74 -140 0 -256
101 -272 236 -4 37 -2 44 13 44 10 0 37 -21 61 -46 41 -44 45 -46 86 -42 67 8
116 35 143 82 28 49 42 96 27 96 -6 0 -13 -13 -17 -30 -14 -66 -74 -110 -150
-110 -62 0 -93 22 -106 77 -13 51 -40 73 -89 73 -48 0 -76 -22 -84 -65 -9 -48
-59 -85 -115 -85 -54 0 -90 19 -126 66 -25 33 -28 45 -28 110 0 41 -3 74 -8
74 -5 0 -19 -9 -31 -19 -13 -11 -34 -29 -47 -40 -35 -30 -74 -26 -128 13 -81
57 -130 76 -199 76 -46 0 -68 -5 -86 -20z m478 -129 c16 -86 62 -139 141 -160
53 -14 88 -2 129 46 23 26 37 34 49 29 15 -5 17 -15 12 -57 -8 -62 -54 -131
-118 -174 -42 -29 -49 -30 -149 -30 -91 1 -112 4 -160 26 -98 46 -158 114
-146 164 7 28 38 40 65 26 10 -6 41 -30 69 -54 74 -63 168 -91 225 -68 24 9 8
23 -45 40 -79 26 -148 108 -148 176 0 52 34 103 56 84 7 -6 16 -27 20 -48z"/>
<path d="M3348 923 c6 -2 18 -2 25 0 6 3 1 5 -13 5 -14 0 -19 -2 -12 -5z"/>
<path d="M3350 385 c0 -8 7 -15 15 -15 9 0 12 6 9 15 -4 8 -10 15 -15 15 -5 0
-9 -7 -9 -15z"/>
<path d="M3413 221 c-19 -30 -60 -35 -104 -12 -43 23 -51 13 -23 -27 12 -18
25 -22 65 -22 54 0 89 24 89 60 0 25 -12 26 -27 1z"/>
</g>
</svg>
